<mxfile host="Electron" modified="2024-04-26T17:06:07.207Z" agent="Mozilla/5.0 (Windows NT 10.0; Win64; x64) AppleWebKit/537.36 (KHTML, like Gecko) draw.io/24.2.5 Chrome/120.0.6099.109 Electron/28.1.0 Safari/537.36" version="24.2.5" etag="2GT7SRKGsHSBKcZhk6vC" type="device">
  <diagram id="x31qXuIs02rRC3Lg6t_5" name="Page-1">
    <mxGraphModel dx="1434" dy="836" grid="1" gridSize="10" guides="1" tooltips="1" connect="1" arrows="1" fold="1" page="1" pageScale="1" pageWidth="850" pageHeight="1100" math="0" shadow="0">
      <root>
        <mxCell id="0" />
        <mxCell id="1" parent="0" />
        <mxCell id="R5svo2e0Ib91jpSvZPfS-1" value="&lt;b style=&quot;font-size: 20px;&quot;&gt;&lt;span style=&quot;font-size: 20px; font-family: Arial, sans-serif; position: relative; top: 0.5pt;&quot;&gt;Musicana records&lt;/span&gt;&lt;/b&gt;" style="text;html=1;align=center;verticalAlign=middle;resizable=0;points=[];autosize=1;strokeColor=none;fillColor=none;fontSize=20;" vertex="1" parent="1">
          <mxGeometry x="330" y="41" width="190" height="40" as="geometry" />
        </mxCell>
        <mxCell id="R5svo2e0Ib91jpSvZPfS-2" value="&lt;span style=&quot;font-size: 12px; font-family: Arial, sans-serif; position: relative; top: 0.5pt;&quot;&gt;song&amp;nbsp;&lt;/span&gt;" style="rounded=0;whiteSpace=wrap;html=1;fontSize=12;" vertex="1" parent="1">
          <mxGeometry x="152.5" y="620" width="100" height="39" as="geometry" />
        </mxCell>
        <mxCell id="R5svo2e0Ib91jpSvZPfS-3" value="&lt;span style=&quot;font-size: 12px; font-family: Arial, sans-serif; position: relative; top: 0.5pt;&quot;&gt;album&amp;nbsp;&lt;/span&gt;" style="rounded=0;whiteSpace=wrap;html=1;fontSize=12;" vertex="1" parent="1">
          <mxGeometry x="560" y="581" width="100" height="39" as="geometry" />
        </mxCell>
        <mxCell id="R5svo2e0Ib91jpSvZPfS-4" value="&lt;span style=&quot;font-size: 12px; font-family: Arial, sans-serif; position: relative; top: 0.5pt;&quot;&gt;instrument&amp;nbsp;&lt;/span&gt;" style="rounded=0;whiteSpace=wrap;html=1;fontSize=12;" vertex="1" parent="1">
          <mxGeometry x="560" y="281" width="80" height="39" as="geometry" />
        </mxCell>
        <mxCell id="R5svo2e0Ib91jpSvZPfS-5" value="&lt;span style=&quot;font-size: 12px; font-family: Arial, sans-serif; position: relative; top: 0.5pt;&quot;&gt;musician&amp;nbsp;&lt;/span&gt;" style="rounded=0;whiteSpace=wrap;html=1;fontSize=12;" vertex="1" parent="1">
          <mxGeometry x="150" y="281" width="90" height="39" as="geometry" />
        </mxCell>
        <mxCell id="R5svo2e0Ib91jpSvZPfS-7" value="&lt;span style=&quot;font-size: 12px; font-family: Arial, sans-serif; position: relative; top: 0.5pt;&quot;&gt;phone&lt;br style=&quot;font-size: 12px;&quot;&gt;number&lt;/span&gt;" style="ellipse;whiteSpace=wrap;html=1;fontSize=12;" vertex="1" parent="1">
          <mxGeometry x="30" y="150" width="100" height="49" as="geometry" />
        </mxCell>
        <mxCell id="R5svo2e0Ib91jpSvZPfS-8" value="&lt;span style=&quot;font-size: 12px; font-family: Arial, sans-serif; position: relative; top: 0.5pt;&quot;&gt;city&lt;/span&gt;" style="ellipse;whiteSpace=wrap;html=1;fontSize=12;" vertex="1" parent="1">
          <mxGeometry y="395" width="70" height="35" as="geometry" />
        </mxCell>
        <mxCell id="R5svo2e0Ib91jpSvZPfS-9" value="&lt;span style=&quot;font-size: 12px; font-family: Arial, sans-serif; position: relative; top: 0.5pt;&quot;&gt;street&lt;/span&gt;" style="ellipse;whiteSpace=wrap;html=1;fontSize=12;" vertex="1" parent="1">
          <mxGeometry x="80" y="395" width="85" height="39" as="geometry" />
        </mxCell>
        <mxCell id="R5svo2e0Ib91jpSvZPfS-10" value="&lt;span style=&quot;font-size: 12px; font-family: Arial, sans-serif; position: relative; top: 0.5pt;&quot;&gt;address&lt;/span&gt;" style="ellipse;whiteSpace=wrap;html=1;fontSize=12;" vertex="1" parent="1">
          <mxGeometry x="20" y="290" width="100" height="49" as="geometry" />
        </mxCell>
        <mxCell id="R5svo2e0Ib91jpSvZPfS-11" value="&lt;span style=&quot;font-size: 12px; font-family: Arial, sans-serif; position: relative; top: 0.5pt;&quot;&gt;name&lt;/span&gt;" style="ellipse;whiteSpace=wrap;html=1;fontSize=12;" vertex="1" parent="1">
          <mxGeometry x="140" y="145" width="90" height="49" as="geometry" />
        </mxCell>
        <mxCell id="R5svo2e0Ib91jpSvZPfS-12" value="&lt;span style=&quot;font-size: 12px; font-family: Arial, sans-serif; position: relative; top: 0.5pt;&quot;&gt;ID&lt;br style=&quot;font-size: 12px;&quot;&gt;number&lt;/span&gt;&lt;hr style=&quot;font-size: 12px;&quot;&gt;" style="ellipse;whiteSpace=wrap;html=1;fontSize=12;" vertex="1" parent="1">
          <mxGeometry x="260" y="140" width="90" height="59" as="geometry" />
        </mxCell>
        <mxCell id="R5svo2e0Ib91jpSvZPfS-13" value="" style="endArrow=none;html=1;rounded=0;exitX=0.5;exitY=1;exitDx=0;exitDy=0;entryX=0.5;entryY=0;entryDx=0;entryDy=0;fontSize=12;" edge="1" parent="1" source="R5svo2e0Ib91jpSvZPfS-10" target="R5svo2e0Ib91jpSvZPfS-8">
          <mxGeometry width="50" height="50" relative="1" as="geometry">
            <mxPoint x="400" y="451" as="sourcePoint" />
            <mxPoint x="450" y="401" as="targetPoint" />
          </mxGeometry>
        </mxCell>
        <mxCell id="R5svo2e0Ib91jpSvZPfS-14" value="" style="endArrow=none;html=1;rounded=0;fontSize=12;exitX=0.5;exitY=1;exitDx=0;exitDy=0;" edge="1" parent="1" source="R5svo2e0Ib91jpSvZPfS-10" target="R5svo2e0Ib91jpSvZPfS-9">
          <mxGeometry width="50" height="50" relative="1" as="geometry">
            <mxPoint x="160" y="400" as="sourcePoint" />
            <mxPoint x="450" y="401" as="targetPoint" />
          </mxGeometry>
        </mxCell>
        <mxCell id="R5svo2e0Ib91jpSvZPfS-15" value="" style="endArrow=none;html=1;rounded=0;entryX=1;entryY=0.5;entryDx=0;entryDy=0;exitX=0;exitY=0.5;exitDx=0;exitDy=0;fontSize=12;" edge="1" parent="1" source="R5svo2e0Ib91jpSvZPfS-5" target="R5svo2e0Ib91jpSvZPfS-10">
          <mxGeometry width="50" height="50" relative="1" as="geometry">
            <mxPoint x="400" y="451" as="sourcePoint" />
            <mxPoint x="450" y="401" as="targetPoint" />
          </mxGeometry>
        </mxCell>
        <mxCell id="R5svo2e0Ib91jpSvZPfS-16" value="" style="endArrow=none;html=1;rounded=0;entryX=1;entryY=1;entryDx=0;entryDy=0;fontSize=12;" edge="1" parent="1" source="R5svo2e0Ib91jpSvZPfS-5" target="R5svo2e0Ib91jpSvZPfS-7">
          <mxGeometry width="50" height="50" relative="1" as="geometry">
            <mxPoint x="400" y="451" as="sourcePoint" />
            <mxPoint x="450" y="401" as="targetPoint" />
          </mxGeometry>
        </mxCell>
        <mxCell id="R5svo2e0Ib91jpSvZPfS-17" value="" style="endArrow=none;html=1;rounded=0;fontSize=12;" edge="1" parent="1" source="R5svo2e0Ib91jpSvZPfS-5" target="R5svo2e0Ib91jpSvZPfS-11">
          <mxGeometry width="50" height="50" relative="1" as="geometry">
            <mxPoint x="400" y="451" as="sourcePoint" />
            <mxPoint x="450" y="401" as="targetPoint" />
          </mxGeometry>
        </mxCell>
        <mxCell id="R5svo2e0Ib91jpSvZPfS-18" value="" style="endArrow=none;html=1;rounded=0;entryX=0.5;entryY=1;entryDx=0;entryDy=0;exitX=0.5;exitY=0;exitDx=0;exitDy=0;fontSize=12;" edge="1" parent="1" source="R5svo2e0Ib91jpSvZPfS-5" target="R5svo2e0Ib91jpSvZPfS-12">
          <mxGeometry width="50" height="50" relative="1" as="geometry">
            <mxPoint x="400" y="451" as="sourcePoint" />
            <mxPoint x="450" y="401" as="targetPoint" />
          </mxGeometry>
        </mxCell>
        <mxCell id="R5svo2e0Ib91jpSvZPfS-23" value="&lt;span style=&quot;font-size: 12px; font-family: Arial, sans-serif; position: relative; top: 0.5pt;&quot;&gt;name&lt;/span&gt;&lt;hr style=&quot;font-size: 12px;&quot;&gt;" style="ellipse;whiteSpace=wrap;html=1;fontSize=12;" vertex="1" parent="1">
          <mxGeometry x="710" y="181" width="90" height="59" as="geometry" />
        </mxCell>
        <mxCell id="R5svo2e0Ib91jpSvZPfS-24" value="&lt;span style=&quot;font-size: 12px; font-family: Arial, sans-serif; position: relative; top: 0.5pt;&quot;&gt;musical&lt;br style=&quot;font-size: 12px;&quot;&gt;key&lt;/span&gt;" style="ellipse;whiteSpace=wrap;html=1;fontSize=12;" vertex="1" parent="1">
          <mxGeometry x="570" y="161" width="90" height="59" as="geometry" />
        </mxCell>
        <mxCell id="R5svo2e0Ib91jpSvZPfS-25" value="" style="endArrow=none;html=1;rounded=0;entryX=0.5;entryY=0;entryDx=0;entryDy=0;exitX=0.5;exitY=1;exitDx=0;exitDy=0;fontSize=12;" edge="1" parent="1" source="R5svo2e0Ib91jpSvZPfS-24" target="R5svo2e0Ib91jpSvZPfS-4">
          <mxGeometry width="50" height="50" relative="1" as="geometry">
            <mxPoint x="570" y="441" as="sourcePoint" />
            <mxPoint x="620" y="391" as="targetPoint" />
          </mxGeometry>
        </mxCell>
        <mxCell id="R5svo2e0Ib91jpSvZPfS-26" value="" style="endArrow=none;html=1;rounded=0;entryX=1;entryY=0.5;entryDx=0;entryDy=0;fontSize=12;" edge="1" parent="1" source="R5svo2e0Ib91jpSvZPfS-23" target="R5svo2e0Ib91jpSvZPfS-4">
          <mxGeometry width="50" height="50" relative="1" as="geometry">
            <mxPoint x="570" y="441" as="sourcePoint" />
            <mxPoint x="620" y="391" as="targetPoint" />
          </mxGeometry>
        </mxCell>
        <mxCell id="R5svo2e0Ib91jpSvZPfS-27" value="&lt;span style=&quot;font-size: 12px; font-family: Arial, sans-serif; position: relative; top: 0.5pt;&quot;&gt;album&lt;br style=&quot;font-size: 12px;&quot;&gt;identifier&lt;/span&gt;&lt;hr style=&quot;font-size: 12px;&quot;&gt;" style="ellipse;whiteSpace=wrap;html=1;fontSize=12;" vertex="1" parent="1">
          <mxGeometry x="720" y="671" width="90" height="59" as="geometry" />
        </mxCell>
        <mxCell id="R5svo2e0Ib91jpSvZPfS-28" value="&lt;span style=&quot;font-size: 12px; font-family: Arial, sans-serif; position: relative; top: 0.5pt;&quot;&gt;copyright&lt;br style=&quot;font-size: 12px;&quot;&gt;date&lt;/span&gt;" style="ellipse;whiteSpace=wrap;html=1;fontSize=12;" vertex="1" parent="1">
          <mxGeometry x="560" y="481" width="100" height="59" as="geometry" />
        </mxCell>
        <mxCell id="R5svo2e0Ib91jpSvZPfS-29" value="&lt;span style=&quot;font-size: 12px; font-family: Arial, sans-serif; position: relative; top: 0.5pt;&quot;&gt;title&lt;/span&gt;" style="ellipse;whiteSpace=wrap;html=1;fontSize=12;" vertex="1" parent="1">
          <mxGeometry x="740" y="561" width="100" height="59" as="geometry" />
        </mxCell>
        <mxCell id="R5svo2e0Ib91jpSvZPfS-30" value="" style="endArrow=none;html=1;rounded=0;exitX=0.92;exitY=1.103;exitDx=0;exitDy=0;exitPerimeter=0;entryX=0;entryY=0;entryDx=0;entryDy=0;fontSize=12;" edge="1" parent="1" source="R5svo2e0Ib91jpSvZPfS-3" target="R5svo2e0Ib91jpSvZPfS-27">
          <mxGeometry width="50" height="50" relative="1" as="geometry">
            <mxPoint x="700" y="500" as="sourcePoint" />
            <mxPoint x="750" y="450" as="targetPoint" />
          </mxGeometry>
        </mxCell>
        <mxCell id="R5svo2e0Ib91jpSvZPfS-31" value="" style="endArrow=none;html=1;rounded=0;exitX=1;exitY=0.5;exitDx=0;exitDy=0;entryX=0;entryY=0.5;entryDx=0;entryDy=0;fontSize=12;" edge="1" parent="1" source="R5svo2e0Ib91jpSvZPfS-3" target="R5svo2e0Ib91jpSvZPfS-29">
          <mxGeometry width="50" height="50" relative="1" as="geometry">
            <mxPoint x="700" y="500" as="sourcePoint" />
            <mxPoint x="750" y="450" as="targetPoint" />
          </mxGeometry>
        </mxCell>
        <mxCell id="R5svo2e0Ib91jpSvZPfS-32" value="" style="endArrow=none;html=1;rounded=0;exitX=0.5;exitY=0;exitDx=0;exitDy=0;entryX=0.5;entryY=1;entryDx=0;entryDy=0;fontSize=12;" edge="1" parent="1" source="R5svo2e0Ib91jpSvZPfS-3" target="R5svo2e0Ib91jpSvZPfS-28">
          <mxGeometry width="50" height="50" relative="1" as="geometry">
            <mxPoint x="700" y="500" as="sourcePoint" />
            <mxPoint x="750" y="450" as="targetPoint" />
          </mxGeometry>
        </mxCell>
        <mxCell id="R5svo2e0Ib91jpSvZPfS-33" value="&lt;span style=&quot;font-size: 12px; font-family: Arial, sans-serif; position: relative; top: 0.5pt;&quot;&gt;author&lt;/span&gt;" style="ellipse;whiteSpace=wrap;html=1;fontSize=12;" vertex="1" parent="1">
          <mxGeometry x="102.5" y="711" width="80" height="50" as="geometry" />
        </mxCell>
        <mxCell id="R5svo2e0Ib91jpSvZPfS-34" value="&lt;span style=&quot;font-size: 12px; font-family: Arial, sans-serif; position: relative; top: 0.5pt;&quot;&gt;title&lt;/span&gt;&lt;hr style=&quot;font-size: 12px;&quot;&gt;" style="ellipse;whiteSpace=wrap;html=1;fontSize=12;" vertex="1" parent="1">
          <mxGeometry x="207.5" y="711" width="80" height="49" as="geometry" />
        </mxCell>
        <mxCell id="R5svo2e0Ib91jpSvZPfS-35" value="" style="endArrow=none;html=1;rounded=0;exitX=0.5;exitY=1;exitDx=0;exitDy=0;entryX=0.5;entryY=0;entryDx=0;entryDy=0;fontSize=12;" edge="1" parent="1" source="R5svo2e0Ib91jpSvZPfS-2" target="R5svo2e0Ib91jpSvZPfS-33">
          <mxGeometry width="50" height="50" relative="1" as="geometry">
            <mxPoint x="432.5" y="480" as="sourcePoint" />
            <mxPoint x="482.5" y="430" as="targetPoint" />
          </mxGeometry>
        </mxCell>
        <mxCell id="R5svo2e0Ib91jpSvZPfS-36" value="" style="endArrow=none;html=1;rounded=0;exitX=0.5;exitY=1;exitDx=0;exitDy=0;entryX=0.5;entryY=0;entryDx=0;entryDy=0;fontSize=12;" edge="1" parent="1" source="R5svo2e0Ib91jpSvZPfS-2" target="R5svo2e0Ib91jpSvZPfS-34">
          <mxGeometry width="50" height="50" relative="1" as="geometry">
            <mxPoint x="432.5" y="480" as="sourcePoint" />
            <mxPoint x="482.5" y="430" as="targetPoint" />
          </mxGeometry>
        </mxCell>
        <mxCell id="R5svo2e0Ib91jpSvZPfS-37" value="&lt;span style=&quot;font-family: Arial, sans-serif; position: relative; top: 0.5pt; font-size: 12px;&quot;&gt;&lt;font style=&quot;font-size: 12px;&quot;&gt;produce&lt;/font&gt;&lt;/span&gt;" style="rhombus;whiteSpace=wrap;html=1;fontSize=12;" vertex="1" parent="1">
          <mxGeometry x="360" y="410" width="80" height="80" as="geometry" />
        </mxCell>
        <mxCell id="R5svo2e0Ib91jpSvZPfS-38" value="&lt;span style=&quot;font-family: Arial, sans-serif; position: relative; top: 0.5pt; font-size: 12px;&quot;&gt;&lt;font style=&quot;font-size: 12px;&quot;&gt;performed&lt;/font&gt;&lt;/span&gt;" style="rhombus;whiteSpace=wrap;html=1;fontSize=12;" vertex="1" parent="1">
          <mxGeometry x="160" y="434" width="80" height="76" as="geometry" />
        </mxCell>
        <mxCell id="R5svo2e0Ib91jpSvZPfS-39" value="has" style="rhombus;whiteSpace=wrap;html=1;fontSize=12;" vertex="1" parent="1">
          <mxGeometry x="365" y="591" width="55" height="59" as="geometry" />
        </mxCell>
        <mxCell id="R5svo2e0Ib91jpSvZPfS-40" value="&lt;span style=&quot;font-size: 12px; font-family: Arial, sans-serif; position: relative; top: 0.5pt;&quot;&gt;play&lt;/span&gt;" style="rhombus;whiteSpace=wrap;html=1;fontSize=12;" vertex="1" parent="1">
          <mxGeometry x="370" y="260" width="70" height="70" as="geometry" />
        </mxCell>
        <mxCell id="R5svo2e0Ib91jpSvZPfS-41" value="" style="endArrow=none;html=1;rounded=0;entryX=1;entryY=0.5;entryDx=0;entryDy=0;exitX=0;exitY=0.5;exitDx=0;exitDy=0;fontSize=12;" edge="1" parent="1" source="R5svo2e0Ib91jpSvZPfS-4" target="R5svo2e0Ib91jpSvZPfS-40">
          <mxGeometry width="50" height="50" relative="1" as="geometry">
            <mxPoint x="570" y="450" as="sourcePoint" />
            <mxPoint x="620" y="400" as="targetPoint" />
          </mxGeometry>
        </mxCell>
        <mxCell id="R5svo2e0Ib91jpSvZPfS-43" value="M" style="edgeLabel;html=1;align=center;verticalAlign=middle;resizable=0;points=[];fontSize=12;" vertex="1" connectable="0" parent="R5svo2e0Ib91jpSvZPfS-41">
          <mxGeometry x="-0.6813" y="-3" relative="1" as="geometry">
            <mxPoint x="9" y="-7" as="offset" />
          </mxGeometry>
        </mxCell>
        <mxCell id="R5svo2e0Ib91jpSvZPfS-42" value="" style="endArrow=none;html=1;rounded=0;entryX=1;entryY=0.5;entryDx=0;entryDy=0;exitX=0;exitY=0.5;exitDx=0;exitDy=0;fontSize=12;" edge="1" parent="1" source="R5svo2e0Ib91jpSvZPfS-40" target="R5svo2e0Ib91jpSvZPfS-5">
          <mxGeometry width="50" height="50" relative="1" as="geometry">
            <mxPoint x="570" y="450" as="sourcePoint" />
            <mxPoint x="620" y="400" as="targetPoint" />
          </mxGeometry>
        </mxCell>
        <mxCell id="R5svo2e0Ib91jpSvZPfS-44" value="M" style="edgeLabel;html=1;align=center;verticalAlign=middle;resizable=0;points=[];fontSize=12;" vertex="1" connectable="0" parent="R5svo2e0Ib91jpSvZPfS-42">
          <mxGeometry x="0.738" y="-1" relative="1" as="geometry">
            <mxPoint x="-5" y="-9" as="offset" />
          </mxGeometry>
        </mxCell>
        <mxCell id="R5svo2e0Ib91jpSvZPfS-45" value="" style="endArrow=none;html=1;rounded=0;entryX=0;entryY=0.5;entryDx=0;entryDy=0;exitX=1;exitY=0.5;exitDx=0;exitDy=0;fontSize=12;" edge="1" parent="1" source="R5svo2e0Ib91jpSvZPfS-2" target="R5svo2e0Ib91jpSvZPfS-39">
          <mxGeometry width="50" height="50" relative="1" as="geometry">
            <mxPoint x="570" y="450" as="sourcePoint" />
            <mxPoint x="620" y="400" as="targetPoint" />
          </mxGeometry>
        </mxCell>
        <mxCell id="R5svo2e0Ib91jpSvZPfS-47" value="M" style="edgeLabel;html=1;align=center;verticalAlign=middle;resizable=0;points=[];fontSize=12;" vertex="1" connectable="0" parent="R5svo2e0Ib91jpSvZPfS-45">
          <mxGeometry x="-0.5575" y="2" relative="1" as="geometry">
            <mxPoint x="-17" y="-3" as="offset" />
          </mxGeometry>
        </mxCell>
        <mxCell id="R5svo2e0Ib91jpSvZPfS-46" value="" style="endArrow=none;html=1;rounded=0;exitX=0;exitY=0.5;exitDx=0;exitDy=0;entryX=1;entryY=0.5;entryDx=0;entryDy=0;fontSize=12;" edge="1" parent="1" source="R5svo2e0Ib91jpSvZPfS-3" target="R5svo2e0Ib91jpSvZPfS-39">
          <mxGeometry width="50" height="50" relative="1" as="geometry">
            <mxPoint x="570" y="450" as="sourcePoint" />
            <mxPoint x="620" y="400" as="targetPoint" />
          </mxGeometry>
        </mxCell>
        <mxCell id="R5svo2e0Ib91jpSvZPfS-48" value="1" style="edgeLabel;html=1;align=center;verticalAlign=middle;resizable=0;points=[];fontSize=12;" vertex="1" connectable="0" parent="R5svo2e0Ib91jpSvZPfS-46">
          <mxGeometry x="-0.655" y="1" relative="1" as="geometry">
            <mxPoint x="14" y="-14" as="offset" />
          </mxGeometry>
        </mxCell>
        <mxCell id="R5svo2e0Ib91jpSvZPfS-50" value="" style="endArrow=none;html=1;rounded=0;entryX=0.5;entryY=1;entryDx=0;entryDy=0;exitX=0.5;exitY=0;exitDx=0;exitDy=0;fontSize=12;" edge="1" parent="1" source="R5svo2e0Ib91jpSvZPfS-2" target="R5svo2e0Ib91jpSvZPfS-38">
          <mxGeometry width="50" height="50" relative="1" as="geometry">
            <mxPoint x="570" y="450" as="sourcePoint" />
            <mxPoint x="620" y="400" as="targetPoint" />
          </mxGeometry>
        </mxCell>
        <mxCell id="R5svo2e0Ib91jpSvZPfS-53" value="M" style="edgeLabel;html=1;align=center;verticalAlign=middle;resizable=0;points=[];fontSize=12;" vertex="1" connectable="0" parent="R5svo2e0Ib91jpSvZPfS-50">
          <mxGeometry x="-0.3101" y="-2" relative="1" as="geometry">
            <mxPoint x="6" y="28" as="offset" />
          </mxGeometry>
        </mxCell>
        <mxCell id="R5svo2e0Ib91jpSvZPfS-51" value="" style="endArrow=none;html=1;rounded=0;entryX=0.5;entryY=1;entryDx=0;entryDy=0;exitX=0.5;exitY=0;exitDx=0;exitDy=0;fontSize=12;" edge="1" parent="1" source="R5svo2e0Ib91jpSvZPfS-38" target="R5svo2e0Ib91jpSvZPfS-5">
          <mxGeometry width="50" height="50" relative="1" as="geometry">
            <mxPoint x="570" y="450" as="sourcePoint" />
            <mxPoint x="620" y="400" as="targetPoint" />
          </mxGeometry>
        </mxCell>
        <mxCell id="R5svo2e0Ib91jpSvZPfS-52" value="M" style="edgeLabel;html=1;align=center;verticalAlign=middle;resizable=0;points=[];fontSize=12;" vertex="1" connectable="0" parent="R5svo2e0Ib91jpSvZPfS-51">
          <mxGeometry x="0.4884" y="-4" relative="1" as="geometry">
            <mxPoint x="2" y="-10" as="offset" />
          </mxGeometry>
        </mxCell>
        <mxCell id="R5svo2e0Ib91jpSvZPfS-54" value="" style="endArrow=none;html=1;rounded=0;exitX=0;exitY=0;exitDx=0;exitDy=0;entryX=1;entryY=1;entryDx=0;entryDy=0;fontSize=12;" edge="1" parent="1" source="R5svo2e0Ib91jpSvZPfS-37" target="R5svo2e0Ib91jpSvZPfS-5">
          <mxGeometry width="50" height="50" relative="1" as="geometry">
            <mxPoint x="570" y="450" as="sourcePoint" />
            <mxPoint x="620" y="400" as="targetPoint" />
          </mxGeometry>
        </mxCell>
        <mxCell id="R5svo2e0Ib91jpSvZPfS-56" value="1" style="edgeLabel;html=1;align=center;verticalAlign=middle;resizable=0;points=[];fontSize=12;" vertex="1" connectable="0" parent="R5svo2e0Ib91jpSvZPfS-54">
          <mxGeometry x="0.7476" y="3" relative="1" as="geometry">
            <mxPoint x="1" as="offset" />
          </mxGeometry>
        </mxCell>
        <mxCell id="R5svo2e0Ib91jpSvZPfS-55" value="" style="endArrow=none;html=1;rounded=0;entryX=0;entryY=0;entryDx=0;entryDy=0;exitX=1;exitY=1;exitDx=0;exitDy=0;fontSize=12;" edge="1" parent="1" source="R5svo2e0Ib91jpSvZPfS-37" target="R5svo2e0Ib91jpSvZPfS-3">
          <mxGeometry width="50" height="50" relative="1" as="geometry">
            <mxPoint x="570" y="450" as="sourcePoint" />
            <mxPoint x="620" y="400" as="targetPoint" />
          </mxGeometry>
        </mxCell>
        <mxCell id="R5svo2e0Ib91jpSvZPfS-57" value="M" style="edgeLabel;html=1;align=center;verticalAlign=middle;resizable=0;points=[];fontSize=12;" vertex="1" connectable="0" parent="R5svo2e0Ib91jpSvZPfS-55">
          <mxGeometry x="0.6223" y="-3" relative="1" as="geometry">
            <mxPoint as="offset" />
          </mxGeometry>
        </mxCell>
      </root>
    </mxGraphModel>
  </diagram>
</mxfile>
